<svg xmlns="http://www.w3.org/2000/svg" viewBox="0 0 750 471">
  <g fill-rule="evenodd">
    <rect fill="#0066B2" width="750" height="471" rx="40"/>
    <path d="M278.198 334.228l33.36-195.763h53.358l-33.384 195.763h-53.334zm246.11-191.54c-10.57-3.966-27.135-8.222-47.822-8.222-52.727 0-89.863 26.551-90.18 64.604-.297 28.129 26.514 43.821 46.754 53.185 20.77 9.597 27.752 15.716 27.652 24.283-.133 13.123-16.586 19.116-31.924 19.116-21.355 0-32.701-2.967-50.225-10.274l-6.877-3.112-7.488 43.823c12.463 5.466 35.508 10.199 59.438 10.445 56.09 0 92.5-26.248 92.916-66.884.199-22.27-14.016-39.216-44.8-53.188-18.65-9.056-30.072-15.099-29.951-24.269 0-8.137 9.668-16.838 30.559-16.838 17.447-.271 30.088 3.534 39.936 7.5l4.781 2.259 7.231-42.428m137.31-4.223h-41.232c-12.773 0-22.332 3.486-27.941 16.234l-79.244 179.404h56.031s9.16-24.121 11.232-29.418c6.123 0 60.555.084 68.336.084 1.596 6.854 6.492 29.334 6.492 29.334h49.512l-43.186-195.638zm-65.417 126.408c4.414-11.279 21.26-54.724 21.26-54.724-.314.521 4.381-11.334 7.074-18.684l3.607 16.878s10.217 46.729 12.352 56.527h-44.293v.003zM231.904 138.465l-52.239 133.496-5.565-27.129c-9.726-31.274-40.025-65.157-73.898-82.12l47.767 171.204 56.455-.064 84.004-195.386-56.524-.001" fill="#fff"/>
    <path d="M100.076 138.465H20.334l-.658 3.97c66.939 16.204 111.232 55.363 129.618 102.415l-18.71-89.96c-3.229-12.396-12.597-16.096-30.508-16.425" fill="#F9A533"/>
  </g>
</svg>
